<mxfile host="app.diagrams.net" agent="Mozilla/5.0 (Windows NT 10.0; Win64; x64) AppleWebKit/537.36 (KHTML, like Gecko) Chrome/127.0.0.0 Safari/537.36" version="24.7.6">
  <diagram name="Página-1" id="Yl4LRWkcJvwt98PLApul">
    <mxGraphModel dx="1120" dy="494" grid="1" gridSize="10" guides="1" tooltips="1" connect="1" arrows="1" fold="1" page="1" pageScale="1" pageWidth="1169" pageHeight="827" math="0" shadow="0">
      <root>
        <mxCell id="0" />
        <mxCell id="1" parent="0" />
        <mxCell id="smdwibLaExKv9_oBBp-C-1" value="" style="ellipse;html=1;shape=startState;fillColor=#000000;strokeColor=#ff0000;" parent="1" vertex="1">
          <mxGeometry x="550" y="20" width="30" height="30" as="geometry" />
        </mxCell>
        <mxCell id="smdwibLaExKv9_oBBp-C-2" value="" style="edgeStyle=orthogonalEdgeStyle;html=1;verticalAlign=bottom;endArrow=open;endSize=8;strokeColor=#ff0000;rounded=0;" parent="1" source="smdwibLaExKv9_oBBp-C-1" edge="1">
          <mxGeometry relative="1" as="geometry">
            <mxPoint x="565" y="110" as="targetPoint" />
          </mxGeometry>
        </mxCell>
        <mxCell id="smdwibLaExKv9_oBBp-C-6" style="edgeStyle=orthogonalEdgeStyle;rounded=0;orthogonalLoop=1;jettySize=auto;html=1;exitX=0.5;exitY=1;exitDx=0;exitDy=0;entryX=0.5;entryY=0;entryDx=0;entryDy=0;" parent="1" source="smdwibLaExKv9_oBBp-C-3" target="smdwibLaExKv9_oBBp-C-5" edge="1">
          <mxGeometry relative="1" as="geometry" />
        </mxCell>
        <mxCell id="smdwibLaExKv9_oBBp-C-3" value="Receber pedido" style="html=1;whiteSpace=wrap;" parent="1" vertex="1">
          <mxGeometry x="510" y="110" width="110" height="50" as="geometry" />
        </mxCell>
        <mxCell id="smdwibLaExKv9_oBBp-C-9" style="edgeStyle=orthogonalEdgeStyle;rounded=0;orthogonalLoop=1;jettySize=auto;html=1;exitX=1;exitY=0.5;exitDx=0;exitDy=0;entryX=0;entryY=0.5;entryDx=0;entryDy=0;" parent="1" source="smdwibLaExKv9_oBBp-C-5" edge="1" target="YuY9VXi_lOj3vdskOHjn-26">
          <mxGeometry relative="1" as="geometry">
            <mxPoint x="730" y="260" as="targetPoint" />
          </mxGeometry>
        </mxCell>
        <mxCell id="smdwibLaExKv9_oBBp-C-23" value="Não" style="edgeLabel;html=1;align=center;verticalAlign=middle;resizable=0;points=[];" parent="smdwibLaExKv9_oBBp-C-9" vertex="1" connectable="0">
          <mxGeometry x="0.0092" y="-1" relative="1" as="geometry">
            <mxPoint y="-1" as="offset" />
          </mxGeometry>
        </mxCell>
        <mxCell id="smdwibLaExKv9_oBBp-C-11" style="edgeStyle=orthogonalEdgeStyle;rounded=0;orthogonalLoop=1;jettySize=auto;html=1;exitX=0;exitY=0.5;exitDx=0;exitDy=0;entryX=1;entryY=0.5;entryDx=0;entryDy=0;" parent="1" source="smdwibLaExKv9_oBBp-C-5" target="smdwibLaExKv9_oBBp-C-10" edge="1">
          <mxGeometry relative="1" as="geometry" />
        </mxCell>
        <mxCell id="smdwibLaExKv9_oBBp-C-24" value="Sim" style="edgeLabel;html=1;align=center;verticalAlign=middle;resizable=0;points=[];" parent="smdwibLaExKv9_oBBp-C-11" vertex="1" connectable="0">
          <mxGeometry x="0.0095" y="-3" relative="1" as="geometry">
            <mxPoint x="-2" y="3" as="offset" />
          </mxGeometry>
        </mxCell>
        <mxCell id="smdwibLaExKv9_oBBp-C-5" value="Delivery?" style="rhombus;whiteSpace=wrap;html=1;" parent="1" vertex="1">
          <mxGeometry x="525" y="220" width="80" height="80" as="geometry" />
        </mxCell>
        <mxCell id="YuY9VXi_lOj3vdskOHjn-16" style="edgeStyle=orthogonalEdgeStyle;rounded=0;orthogonalLoop=1;jettySize=auto;html=1;exitX=0.5;exitY=1;exitDx=0;exitDy=0;entryX=0.5;entryY=0;entryDx=0;entryDy=0;" edge="1" parent="1" source="smdwibLaExKv9_oBBp-C-10" target="YuY9VXi_lOj3vdskOHjn-14">
          <mxGeometry relative="1" as="geometry" />
        </mxCell>
        <mxCell id="smdwibLaExKv9_oBBp-C-10" value="Preparar" style="html=1;whiteSpace=wrap;" parent="1" vertex="1">
          <mxGeometry x="310" y="235" width="110" height="50" as="geometry" />
        </mxCell>
        <mxCell id="smdwibLaExKv9_oBBp-C-20" style="edgeStyle=orthogonalEdgeStyle;rounded=0;orthogonalLoop=1;jettySize=auto;html=1;exitX=1;exitY=0.5;exitDx=0;exitDy=0;entryX=0.5;entryY=0;entryDx=0;entryDy=0;" parent="1" source="smdwibLaExKv9_oBBp-C-18" target="YuY9VXi_lOj3vdskOHjn-8" edge="1">
          <mxGeometry relative="1" as="geometry">
            <mxPoint x="985" y="420" as="targetPoint" />
          </mxGeometry>
        </mxCell>
        <mxCell id="smdwibLaExKv9_oBBp-C-26" value="Sim" style="edgeLabel;html=1;align=center;verticalAlign=middle;resizable=0;points=[];" parent="smdwibLaExKv9_oBBp-C-20" vertex="1" connectable="0">
          <mxGeometry x="-0.3845" y="1" relative="1" as="geometry">
            <mxPoint y="1" as="offset" />
          </mxGeometry>
        </mxCell>
        <mxCell id="YuY9VXi_lOj3vdskOHjn-40" style="edgeStyle=orthogonalEdgeStyle;rounded=0;orthogonalLoop=1;jettySize=auto;html=1;exitX=0;exitY=0.5;exitDx=0;exitDy=0;entryX=0.5;entryY=0;entryDx=0;entryDy=0;" edge="1" parent="1" source="smdwibLaExKv9_oBBp-C-18" target="YuY9VXi_lOj3vdskOHjn-12">
          <mxGeometry relative="1" as="geometry" />
        </mxCell>
        <mxCell id="YuY9VXi_lOj3vdskOHjn-41" value="Não" style="edgeLabel;html=1;align=center;verticalAlign=middle;resizable=0;points=[];" vertex="1" connectable="0" parent="YuY9VXi_lOj3vdskOHjn-40">
          <mxGeometry x="-0.5301" y="3" relative="1" as="geometry">
            <mxPoint as="offset" />
          </mxGeometry>
        </mxCell>
        <mxCell id="smdwibLaExKv9_oBBp-C-18" value="Comer no&lt;div&gt;local?&lt;/div&gt;" style="rhombus;whiteSpace=wrap;html=1;" parent="1" vertex="1">
          <mxGeometry x="892.5" y="310" width="85" height="80" as="geometry" />
        </mxCell>
        <mxCell id="YuY9VXi_lOj3vdskOHjn-38" style="edgeStyle=orthogonalEdgeStyle;rounded=0;orthogonalLoop=1;jettySize=auto;html=1;exitX=0.5;exitY=1;exitDx=0;exitDy=0;entryX=0.5;entryY=0;entryDx=0;entryDy=0;" edge="1" parent="1" source="smdwibLaExKv9_oBBp-C-27" target="smdwibLaExKv9_oBBp-C-18">
          <mxGeometry relative="1" as="geometry" />
        </mxCell>
        <mxCell id="smdwibLaExKv9_oBBp-C-27" value="Preparar" style="html=1;whiteSpace=wrap;" parent="1" vertex="1">
          <mxGeometry x="880" y="235" width="110" height="50" as="geometry" />
        </mxCell>
        <mxCell id="YuY9VXi_lOj3vdskOHjn-21" style="edgeStyle=orthogonalEdgeStyle;rounded=0;orthogonalLoop=1;jettySize=auto;html=1;exitX=0.5;exitY=1;exitDx=0;exitDy=0;entryX=1;entryY=0.5;entryDx=0;entryDy=0;" edge="1" parent="1" source="YuY9VXi_lOj3vdskOHjn-8" target="YuY9VXi_lOj3vdskOHjn-18">
          <mxGeometry relative="1" as="geometry" />
        </mxCell>
        <mxCell id="YuY9VXi_lOj3vdskOHjn-8" value="Servir na mesa" style="html=1;whiteSpace=wrap;" vertex="1" parent="1">
          <mxGeometry x="950" y="413.5" width="110" height="50" as="geometry" />
        </mxCell>
        <mxCell id="YuY9VXi_lOj3vdskOHjn-20" style="edgeStyle=orthogonalEdgeStyle;rounded=0;orthogonalLoop=1;jettySize=auto;html=1;exitX=0.5;exitY=1;exitDx=0;exitDy=0;entryX=0.5;entryY=0;entryDx=0;entryDy=0;" edge="1" parent="1" source="YuY9VXi_lOj3vdskOHjn-12" target="YuY9VXi_lOj3vdskOHjn-18">
          <mxGeometry relative="1" as="geometry" />
        </mxCell>
        <mxCell id="YuY9VXi_lOj3vdskOHjn-12" value="Entregar para o cliente" style="html=1;whiteSpace=wrap;" vertex="1" parent="1">
          <mxGeometry x="810" y="414" width="110" height="50" as="geometry" />
        </mxCell>
        <mxCell id="YuY9VXi_lOj3vdskOHjn-17" style="edgeStyle=orthogonalEdgeStyle;rounded=0;orthogonalLoop=1;jettySize=auto;html=1;exitX=0.5;exitY=1;exitDx=0;exitDy=0;entryX=0.5;entryY=0;entryDx=0;entryDy=0;" edge="1" parent="1" source="YuY9VXi_lOj3vdskOHjn-14" target="YuY9VXi_lOj3vdskOHjn-15">
          <mxGeometry relative="1" as="geometry" />
        </mxCell>
        <mxCell id="YuY9VXi_lOj3vdskOHjn-14" value="Entregar" style="html=1;whiteSpace=wrap;" vertex="1" parent="1">
          <mxGeometry x="310" y="330" width="110" height="50" as="geometry" />
        </mxCell>
        <mxCell id="YuY9VXi_lOj3vdskOHjn-34" style="edgeStyle=orthogonalEdgeStyle;rounded=0;orthogonalLoop=1;jettySize=auto;html=1;exitX=0.5;exitY=1;exitDx=0;exitDy=0;entryX=0;entryY=0.5;entryDx=0;entryDy=0;" edge="1" parent="1" source="YuY9VXi_lOj3vdskOHjn-15" target="YuY9VXi_lOj3vdskOHjn-18">
          <mxGeometry relative="1" as="geometry" />
        </mxCell>
        <mxCell id="YuY9VXi_lOj3vdskOHjn-15" value="Pagar" style="html=1;whiteSpace=wrap;" vertex="1" parent="1">
          <mxGeometry x="310" y="420" width="110" height="50" as="geometry" />
        </mxCell>
        <mxCell id="YuY9VXi_lOj3vdskOHjn-18" value="" style="ellipse;html=1;shape=endState;fillColor=#000000;strokeColor=#ff0000;" vertex="1" parent="1">
          <mxGeometry x="550" y="510" width="30" height="30" as="geometry" />
        </mxCell>
        <mxCell id="YuY9VXi_lOj3vdskOHjn-35" style="edgeStyle=orthogonalEdgeStyle;rounded=0;orthogonalLoop=1;jettySize=auto;html=1;exitX=0.5;exitY=1;exitDx=0;exitDy=0;entryX=0.5;entryY=0;entryDx=0;entryDy=0;" edge="1" parent="1" source="YuY9VXi_lOj3vdskOHjn-26" target="YuY9VXi_lOj3vdskOHjn-18">
          <mxGeometry relative="1" as="geometry" />
        </mxCell>
        <mxCell id="YuY9VXi_lOj3vdskOHjn-36" value="Não" style="edgeLabel;html=1;align=center;verticalAlign=middle;resizable=0;points=[];" vertex="1" connectable="0" parent="YuY9VXi_lOj3vdskOHjn-35">
          <mxGeometry x="-0.92" relative="1" as="geometry">
            <mxPoint as="offset" />
          </mxGeometry>
        </mxCell>
        <mxCell id="YuY9VXi_lOj3vdskOHjn-37" style="edgeStyle=orthogonalEdgeStyle;rounded=0;orthogonalLoop=1;jettySize=auto;html=1;exitX=1;exitY=0.5;exitDx=0;exitDy=0;entryX=0;entryY=0.5;entryDx=0;entryDy=0;" edge="1" parent="1" source="YuY9VXi_lOj3vdskOHjn-26" target="smdwibLaExKv9_oBBp-C-27">
          <mxGeometry relative="1" as="geometry" />
        </mxCell>
        <mxCell id="YuY9VXi_lOj3vdskOHjn-39" value="Sim" style="edgeLabel;html=1;align=center;verticalAlign=middle;resizable=0;points=[];" vertex="1" connectable="0" parent="YuY9VXi_lOj3vdskOHjn-37">
          <mxGeometry x="-0.3" relative="1" as="geometry">
            <mxPoint as="offset" />
          </mxGeometry>
        </mxCell>
        <mxCell id="YuY9VXi_lOj3vdskOHjn-26" value="Pagamento autorizado" style="rhombus;whiteSpace=wrap;html=1;" vertex="1" parent="1">
          <mxGeometry x="720" y="220" width="80" height="80" as="geometry" />
        </mxCell>
      </root>
    </mxGraphModel>
  </diagram>
</mxfile>
